<?xml version="1.0" standalone="no"?>
<!DOCTYPE svg PUBLIC "-//W3C//DTD SVG 20010904//EN"
 "http://www.w3.org/TR/2001/REC-SVG-20010904/DTD/svg10.dtd">
<svg version="1.0" xmlns="http://www.w3.org/2000/svg"
 width="180.000000pt" height="180.000000pt" viewBox="0 0 180.000000 180.000000"
 preserveAspectRatio="xMidYMid meet">
<metadata>
Created by potrace 1.11, written by Peter Selinger 2001-2013
</metadata>
<g transform="translate(0.000000,180.000000) scale(0.100000,-0.100000)"
fill="#000000" stroke="none">
<path d="M0 900 l0 -900 900 0 900 0 0 900 0 900 -900 0 -900 0 0 -900z m1067
545 c158 -78 241 -229 230 -419 -3 -55 -14 -116 -27 -154 -29 -81 -102 -193
-179 -272 -45 -46 -58 -65 -49 -71 43 -27 205 -37 287 -18 98 22 206 95 264
179 l18 25 -6 -45 c-3 -25 -15 -73 -26 -107 -35 -108 -133 -171 -301 -196 -94
-13 -202 1 -292 39 -76 33 -96 33 -172 0 -90 -38 -198 -52 -292 -39 -168 25
-266 88 -301 196 -11 34 -23 82 -26 107 l-6 45 18 -25 c58 -84 166 -157 264
-179 82 -19 244 -9 287 18 9 6 -4 25 -49 71 -77 79 -150 191 -179 272 -45 128
-37 287 20 398 48 94 171 189 272 210 77 16 166 3 245 -35z"/>
<path d="M819 1317 c-174 -65 -217 -290 -97 -507 40 -73 153 -200 178 -200 25
0 138 127 178 200 112 203 82 418 -71 497 -42 21 -143 27 -188 10z"/>
</g>
</svg>
