<svg width="125" height="28" viewBox="0 0 125 28" xmlns="http://www.w3.org/2000/svg"><g fill="none" fill-rule="evenodd"><path d="M81.765 6.051c.436.436.4 1.181-.083 1.663-.481.482-1.226.52-1.662.083-.436-.436-.398-1.181.083-1.663.482-.482 1.226-.52 1.662-.083zm19.687 0c.436.436.4 1.181-.083 1.663-.481.482-1.225.519-1.661.083-.436-.436-.4-1.181.082-1.663.482-.482 1.226-.52 1.662-.083z" fill="#FA0"/><path d="M46.786 1.67c.002-.002.004.067.004.206v.469a1.14 1.14 0 01-.893 1.11c-.298.067-.532.125-.702.176-2.85.856-3.51 2.462-3.543 4.454l-.001 2.758h2.537v1.485H41.65V26h-1.758V12.328H35.6c0-.82.665-1.484 1.484-1.484h2.809V8.155c0-3.29 2.14-5.867 6.893-6.487zm17.011 11.892c.851 2.361-.909 4.52-3.626 5.47-2.636.922-6.527.387-7.652-.39.317 3.284 3.777 4.698 7.25 4.466 3.473-.232 5.966-.936 9.5-4.451l1.179-1.292-5.74-6.521h1.723c.285 0 .556.122.745.336l4.378 4.975 4.56-4.988a.992.992 0 01.731-.323h1.789c-2.67 2.94-4.664 5.127-5.982 6.56l6.124 6.955h-1.723a.992.992 0 01-.745-.336l-4.767-5.416-.303.323c-2.536 2.695-5.849 5.373-11.34 5.694-4.772.279-8.789-2.14-9.153-6.282-.254-2.882 1.029-5.815 4.297-7.207 3.268-1.392 7.73-.419 8.755 2.427zm42.435-7.484l-.007 4.765h4.088c0 .82-.664 1.485-1.484 1.485h-2.607l-.008 5.34v.213c.01 2.256.285 5.228 7.964 5.373 4.332.082 8.17-.69 8.34-2.572.17-1.881-2.48-2.49-5.352-2.576-2.871-.086-6.268-.755-6.267-3.683 0-2.927 3.985-3.811 6.511-3.811 1.697 0 3.66.377 5.89 1.132a1.842 1.842 0 01-2.107.873c-1.321-.373-2.582-.559-3.783-.559-2.07 0-4.755.766-4.754 2.365 0 1.6 1.98 2.159 4.988 2.237 3.008.078 6.8 1.125 6.63 4.1-.169 2.976-4.866 3.94-10.096 3.861-8.213-.122-9.62-2.977-9.642-7.031l.007-5.262h-1.49v-1.484h1.492l.008-4.766h1.679zm-20.433-.027v6.33c.996-.988 2.564-1.694 5.036-1.694 6.48 0 6.753 4.852 6.753 6.915 0 4.265-2.232 6.914-6.753 6.914s-6.753-2.65-6.753-6.914c0-.133 0-.277.005-.43h-.005V6.05h1.717zm-4.06 4.793v13.515h-1.795V10.844h1.795zm19.596 0v13.515h-1.717V10.844h1.717zM48.532 6.05v18.307h-1.68V6.051h1.68zm42.303 6.06c-4.756 0-5.02 3.273-5.035 5.17v.32c0 3.578 1.515 5.492 5.035 5.492 3.436 0 4.962-1.824 5.033-5.239l.002-.252v-.21c-.007-1.878-.186-5.282-5.035-5.282zm-35.763.722c-1.466.87-2.607 2.415-2.607 4.353 2.061 1.076 5.544 1.228 7.507.263 1.962-.965 2.814-2.371 1.949-3.782-1.078-1.757-4.526-2.211-6.849-.834z" fill="#1D1E1F" fill-rule="nonzero"/><g><path d="M14 .5C24 .5 28 4.75 28 14s-4 13.5-14 13.5S0 23.25 0 14 4 .5 14 .5z" fill="#FA0"/><path d="M13.958 21.173c-4.234 2.54-8.856.892-10.076-.705-.514-.784-1.012-2.583-1.091-3.887 1.116 2.87 5.266 4.833 9.246 3.18C4.212 13.1 8.23 4.943 13.957 4.943c5.728 0 9.747 8.157 1.922 14.82 3.98 1.652 8.13-.312 9.246-3.181-.079 1.304-.577 3.103-1.091 3.887-1.22 1.597-5.842 3.245-10.076.705m0-13.799c-3.644.02-5.34 4.597-2.258 8.994a9.503 9.503 0 002.258 2.299 9.51 9.51 0 002.258-2.3c3.082-4.396 1.385-8.973-2.258-8.993" fill="#FFF"/></g></g></svg>